<?xml version="1.0" standalone="no"?>
<!DOCTYPE svg PUBLIC "-//W3C//DTD SVG 20010904//EN"
 "http://www.w3.org/TR/2001/REC-SVG-20010904/DTD/svg10.dtd">
<svg version="1.0" xmlns="http://www.w3.org/2000/svg"
 width="373.000000pt" height="373.000000pt" viewBox="0 0 373.000000 373.000000"
 preserveAspectRatio="xMidYMid meet">
<metadata>
Created by potrace 1.14, written by Peter Selinger 2001-2017
</metadata>
<g transform="translate(0.000000,373.000000) scale(0.100000,-0.100000)"
fill="#000000" stroke="none">
<path d="M1910 2756 c-19 -18 -100 -32 -100 -17 0 13 -62 25 -88 17 -11 -4
-23 -18 -26 -33 -4 -14 -10 -23 -13 -19 -4 3 -17 -1 -30 -9 -13 -9 -28 -13
-33 -10 -6 3 -10 2 -10 -2 0 -13 -63 -34 -70 -23 -8 12 -82 2 -92 -13 -4 -7
-8 -24 -8 -39 0 -33 -20 -63 -130 -195 -70 -84 -90 -103 -112 -103 -38 0 -63
-47 -46 -85 6 -14 15 -25 20 -25 6 0 7 -57 3 -137 -5 -112 -9 -142 -24 -158
-25 -28 -24 -61 3 -82 26 -21 46 -54 52 -88 2 -12 11 -36 19 -51 8 -16 15 -34
15 -40 0 -6 7 -25 16 -43 17 -35 20 -61 10 -102 -8 -34 19 -58 67 -62 20 -2
45 -11 55 -20 10 -9 24 -17 30 -17 7 0 12 -4 12 -9 0 -5 8 -12 18 -15 10 -4
27 -14 38 -24 10 -9 36 -28 57 -42 20 -14 45 -42 54 -62 9 -21 19 -38 22 -39
38 -5 54 -3 68 11 16 14 37 15 166 9 114 -5 156 -11 182 -24 28 -16 37 -17 64
-6 17 8 29 16 27 20 -9 13 10 28 79 63 39 20 96 49 128 65 36 19 67 28 83 25
37 -7 64 22 62 67 -1 34 18 76 48 108 6 7 20 33 30 57 11 25 23 46 27 46 5 0
5 5 2 10 -3 6 -1 10 4 10 6 0 11 9 11 20 0 11 4 20 10 20 5 0 9 5 7 12 -1 6 7
14 18 16 25 6 55 40 55 64 0 10 -9 34 -19 54 -26 48 -30 244 -6 264 8 7 15 28
15 47 0 29 -5 36 -29 44 -23 8 -46 39 -110 146 -50 85 -81 147 -81 165 0 42
-34 71 -75 64 -25 -5 -53 2 -121 32 -49 22 -100 43 -114 47 -61 18 -129 58
-134 79 -4 18 -14 23 -48 24 -27 2 -49 -3 -58 -12z"/>
<path d="M1430 2727 c-78 -34 -158 -83 -224 -136 -21 -17 -42 -28 -47 -25 -5
3 -8 1 -7 -4 2 -5 -15 -29 -37 -53 -59 -64 -109 -138 -151 -221 -20 -40 -39
-75 -43 -78 -3 -3 -6 -9 -6 -15 0 -5 -9 -44 -20 -85 -17 -62 -20 -106 -19
-250 0 -163 2 -181 28 -260 29 -91 130 -281 172 -327 71 -77 94 -99 159 -147
92 -69 240 -146 310 -161 133 -28 268 -34 390 -17 65 9 243 59 255 72 3 3 19
12 35 20 17 8 56 31 87 52 31 21 59 38 63 38 9 0 186 187 183 193 -1 1 10 20
24 42 29 47 58 101 58 110 0 4 -16 -15 -36 -42 -46 -61 -192 -203 -210 -203
-2 0 -14 -9 -26 -19 -47 -45 -186 -106 -296 -131 -76 -17 -344 -18 -407 -2
-75 21 -206 80 -270 123 -82 55 -240 210 -228 223 4 3 2 6 -4 6 -5 0 -18 18
-29 40 -10 22 -22 40 -25 40 -12 0 -50 100 -43 112 4 7 3 8 -4 4 -11 -7 -20
18 -48 134 -21 90 -13 327 15 425 65 225 240 438 449 544 39 20 52 31 35 31
-5 0 -42 -15 -83 -33z"/>
</g>
</svg>
